PathFileType	4	(X/Y/Z)	C:/Users/opensim2020/Desktop/walking_exp_matlab/subject03_walking10_straight_04.trc																																																																																																																																					
DataRate	CameraRate	NumFrames	NumMarkers	Units	OrigDataRate	OrigDataStartFrame	OrigNumFrames																																																																																																																																	
100	100	5	45	mm	100	4101	317																																																																																																																																	
Frame#	Time	LFHD			RFHD			LBHD			RBHD			C7			T10			CLAV			STRN			RBAK			LSHO			LUPA			LELB			LFRM			LWRA			LWRB			LFIN			RSHO			RUPA			RELB			RFRM			RWRA			RWRB			RFIN			LASI			RASI			LPSI			RPSI			LTHI			LKNE			LTIB			LANK			LHEE			LTOE			RTHI			RKNE			RTIB			RANK			RHEE			RTOE			*39			*40			*41			*42			*43			*44		
		X1	Y1	Z1	X2	Y2	Z2	X3	Y3	Z3	X4	Y4	Z4	X5	Y5	Z5	X6	Y6	Z6	X7	Y7	Z7	X8	Y8	Z8	X9	Y9	Z9	X10	Y10	Z10	X11	Y11	Z11	X12	Y12	Z12	X13	Y13	Z13	X14	Y14	Z14	X15	Y15	Z15	X16	Y16	Z16	X17	Y17	Z17	X18	Y18	Z18	X19	Y19	Z19	X20	Y20	Z20	X21	Y21	Z21	X22	Y22	Z22	X23	Y23	Z23	X24	Y24	Z24	X25	Y25	Z25	X26	Y26	Z26	X27	Y27	Z27	X28	Y28	Z28	X29	Y29	Z29	X30	Y30	Z30	X31	Y31	Z31	X32	Y32	Z32	X33	Y33	Z33	X34	Y34	Z34	X35	Y35	Z35	X36	Y36	Z36	X37	Y37	Z37	X38	Y38	Z38	X39	Y39	Z39	X40	Y40	Z40	X41	Y41	Z41	X42	Y42	Z42	X43	Y43	Z43	X44	Y44	Z44	X45	Y45	Z45
																																																																																																																																								
278	2.77	947.96216	1602.30688	940.41217	946.1543	1605.36499	1073.38245	821.90143	1551.55969	944.63458	826.04382	1555.02539	1074.97656	797.53394	1395.07971	1003.28772	769.61786	1081.25671	1003.55658	920.53143	1320.27173	998.60046	964.38055	1155.41016	993.75977	750.72894	1220.38513	1103.24609	868.46753	1354.67395	843.6037	845.01831	1154.12708	779.77368	842.90051	1030.04468	773.86133	863.45868	901.11938	780.16284	880.55597	785.11456	815.72925	853.99792	787.48792	766.34106	866.00403	704.14685	780.98248	883.17712	1343.22205	1160.91309	915.48425	1124.58374	1235.05566	954.47162	1019.21942	1247.91357	1009.43311	894.04352	1243.06921	1065.28076	814.94202	1201.71667	1038.67688	798.06329	1245.88989	1082.82178	739.4433	1231.5741	934.79651	912.12225	892.76636	930.96649	921.05872	1131.11389	772.87134	939.20227	937.40448	772.96796	957.48724	1086.33704	935.72552	614.04681	847.00787	1010.74542	455.41736	890.92664	1030.02783	267.88504	886.9057	1100.29956	67.31922	916.82916	1078.26868	23.96194	960.01099	1253.3501	69.85421	917.38806	828.40875	633.80627	1166.37561	800.92206	455.72989	1130.52051	704.87866	286.323	1128.34705	620.80206	86.19061	1072.60278	570.56317	65.68806	1020.85614	754.21796	29.1207	1054.03711	862.99457	1658.04285	991.49615	NaN	NaN	NaN	NaN	NaN	NaN	NaN	NaN	NaN	NaN	NaN	NaN	NaN	NaN	NaN
279	2.78	955.25787	1601.35291	939.11713	952.90344	1604.99268	1072.15027	828.98022	1550.35583	943.36841	832.97009	1554.052	1073.77014	805.33765	1394.12854	1001.76917	778.00433	1080.26074	1002.07129	928.61627	1319.50391	997.7536	972.69867	1154.67346	993.20435	758.12964	1219.32849	1101.47314	877.26654	1353.9292	842.5542	854.48029	1153.16235	778.84656	852.24762	1028.84155	773.13068	873.2793	900.1438	779.94464	890.05267	784.15997	815.98718	863.96313	786.43542	766.33716	875.81622	703.0788	781.34436	890.27014	1342.27527	1159.95422	922.00964	1123.30908	1233.604	960.69336	1017.78229	1246.38135	1015.03607	892.29633	1241.63184	1070.58032	813.02356	1200.41736	1043.76685	796.14966	1244.53479	1087.6239	737.3678	1230.3479	943.61774	911.2196	892.21027	938.41821	919.97565	1130.53064	781.29901	938.50189	936.13922	780.70441	956.58899	1084.96985	946.18146	614.47198	846.06189	1019.84076	455.09006	890.00537	1036.40222	266.36285	886.70178	1103.27856	64.96632	917.73822	1079.99976	23.11396	960.22461	1255.99841	65.30468	918.22418	834.03064	633.24286	1165.81299	805.74811	455.22711	1130.3396	707.88953	286.75153	1128.09082	621.37097	87.66372	1072.61182	571.16504	67.50518	1020.76422	754.34381	29.06468	1054.1095	869.48004	1657.08472	990.16968	NaN	NaN	NaN	NaN	NaN	NaN	NaN	NaN	NaN	NaN	NaN	NaN	NaN	NaN	NaN
280	2.79	961.935	1600.95032	937.85126	959.58417	1604.66772	1070.87646	836.07434	1549.18408	942.11652	839.93774	1553.1936	1072.46863	813.20496	1393.17261	1000.18329	786.48175	1079.33838	1000.68567	936.69708	1318.86011	996.92126	981.15326	1154.04578	992.64319	765.75067	1218.33289	1099.53955	886.21356	1353.13721	841.41565	864.18781	1152.38086	777.6792	862.11456	1027.92639	772.37866	883.20776	899.28088	779.64771	899.79736	783.23059	816.32758	874.14813	785.52435	766.23578	885.95496	702.16803	781.59296	897.44946	1341.45605	1159.00134	928.62085	1122.13574	1232.08728	966.96472	1016.40948	1244.73792	1020.5152	890.60229	1240.20898	1075.92615	811.04224	1199.31238	1048.61401	794.29858	1243.31604	1092.17786	735.20166	1229.34778	952.76801	910.60938	891.65417	946.02631	918.93231	1130.01672	790.06201	937.95752	934.71619	788.58508	955.77545	1083.59351	956.78577	614.95386	845.37836	1028.68481	454.71985	889.10394	1042.15295	264.724	886.77405	1106.37317	63.20263	918.52448	1080.9021	23.0941	960.98792	1258.578	58.74327	918.8894	839.88416	632.73846	1165.15234	810.85797	454.76379	1130.05029	711.05029	287.30637	1127.79102	622.33185	89.09899	1072.49353	571.85419	69.56969	1020.66125	754.4975	29.03248	1054.18494	876.11487	1656.17529	988.41998	NaN	NaN	NaN	NaN	NaN	NaN	NaN	NaN	NaN	NaN	NaN	NaN	NaN	NaN	NaN
281	2.8	968.94891	1600.80371	936.40485	966.37689	1604.59839	1069.56079	843.26794	1548.1123	940.74646	846.97174	1552.36377	1071.13538	820.97638	1392.52441	998.68958	795.48694	1078.41394	998.93317	944.87921	1318.39099	995.99829	989.75586	1153.71228	992.12823	773.34338	1217.59949	1097.62207	895.28925	1352.58264	840.15576	873.9798	1151.60913	776.57135	872.13428	1027.20398	771.49365	893.34418	898.48541	779.23285	910.28583	782.84204	816.04443	884.59192	784.75525	766.00183	896.41394	701.46942	781.61835	904.72443	1340.70264	1157.76733	935.28577	1121.1178	1230.53442	973.25482	1015.18707	1243.17981	1025.9231	888.95123	1238.83862	1080.77454	808.74103	1198.04126	1053.13245	792.3009	1241.92065	1096.44739	733.0282	1228.41711	962.03717	910.38428	891.20599	953.89874	917.95593	1129.56262	799.01459	937.67645	933.05432	796.50397	955.03119	1082.14771	967.14276	615.4494	845.07489	1036.78467	454.24252	888.61578	1048.09302	263.74768	887.63782	1110.4895	62.80076	918.62744	1083.23938	24.94828	961.50732	1261.88684	50.17749	918.83984	845.96454	632.30157	1164.41394	816.13898	454.43488	1129.495	714.35693	288.06625	1127.39502	623.25385	90.84756	1072.55188	572.67053	71.92353	1020.68872	754.66565	29.01159	1054.22693	882.56018	1655.44507	986.99152	NaN	NaN	NaN	NaN	NaN	NaN	NaN	NaN	NaN	NaN	NaN	NaN	NaN	NaN	NaN
282	2.81	975.77856	1600.77295	935.11334	973.13434	1605.00671	1068.20691	850.10541	1547.35413	939.78845	854.11389	1551.91003	1069.74744	828.76526	1392.1189	997.0589	804.10583	1077.9657	997.51715	952.98639	1318.36536	995.04993	998.28656	1153.80627	991.61334	780.98993	1217.11829	1095.40308	904.24878	1352.14587	838.85919	883.74237	1151.00012	775.41479	882.35437	1026.62756	770.61121	903.69086	897.90631	778.70148	920.34589	782.27228	815.94916	895.3183	784.14459	765.62872	907.15472	700.9184	781.51855	911.90588	1340.32349	1156.75891	942.0788	1120.32129	1228.89685	979.67993	1014.12958	1241.45386	1031.2312	887.40106	1237.44421	1085.48291	806.64917	1197.07007	1057.50952	790.52722	1240.79822	1100.32495	730.84216	1227.60107	971.43805	910.56317	890.76038	961.75708	917.13306	1129.23291	808.28809	937.8476	931.39728	804.71564	954.43811	1080.64453	976.91003	616.39459	844.94604	1043.16443	453.88583	888.40845	1054.57288	263.99634	887.29492	1114.81812	62.34285	917.84595	1085.18115	26.53347	960.46442	1264.99451	43.99511	919.0307	852.44659	631.98199	1163.56958	821.81628	454.22086	1128.75879	718.06403	288.97028	1126.78247	624.6601	92.77014	1072.48706	573.65802	74.69251	1020.68286	754.86548	28.99751	1054.24255	888.84967	1655.41992	986.14484	NaN	NaN	NaN	NaN	NaN	NaN	NaN	NaN	NaN	NaN	NaN	NaN	NaN	NaN	NaN
